<?xml version="1.0" encoding="utf-8"?>
<!-- Generator: Adobe Illustrator 22.0.1, SVG Export Plug-In . SVG Version: 6.00 Build 0)  -->
<!DOCTYPE svg PUBLIC "-//W3C//DTD SVG 1.1//EN" "http://www.w3.org/Graphics/SVG/1.1/DTD/svg11.dtd">
<svg version="1.1" id="Capa_1" xmlns="http://www.w3.org/2000/svg" xmlns:xlink="http://www.w3.org/1999/xlink" x="0px" y="0px"
	 viewBox="0 0 49.7 49.7" style="enable-background:new 0 0 49.7 49.7;" xml:space="preserve">
<style type="text/css">
	.st0{fill:#5f5f5f;}
</style>
<g>
	<path class="st0" d="M27.5,21.8L27.5,21.8C27.5,21.8,27.5,21.8,27.5,21.8L27.5,21.8z"/>
	<path class="st0" d="M24.8,0C11.1,0,0,11.1,0,24.8s11.1,24.8,24.8,24.8c13.7,0,24.8-11.1,24.8-24.8S38.5,0,24.8,0z M18.3,37.1h-5.9
		V19.2h5.9V37.1z M15.3,16.8L15.3,16.8c-2,0-3.3-1.4-3.3-3.1c0-1.8,1.3-3.1,3.4-3.1c2,0,3.3,1.3,3.3,3.1
		C18.7,15.4,17.4,16.8,15.3,16.8z M39.7,37.1h-5.9v-9.5c0-2.4-0.9-4-3-4c-1.6,0-2.6,1.1-3,2.2c-0.2,0.4-0.2,0.9-0.2,1.4v10h-5.9
		c0,0,0.1-16.2,0-17.8h5.9v2.5c0.8-1.2,2.2-2.9,5.3-2.9c3.9,0,6.8,2.6,6.8,8V37.1z"/>
</g>
</svg>
